<svg id="Capa_1" fill='#214870' enable-background="new 0 0 512 512" height="512" viewBox="0 0 512 512" width="512" xmlns="http://www.w3.org/2000/svg"><g><path d="m497 360h-26v-153.791l15.63 12.504c2.766 2.213 6.074 3.288 9.36 3.288 4.4 0 8.761-1.928 11.723-5.631 5.176-6.469 4.127-15.908-2.343-21.083l-64.37-51.496v-113.791h5c8.284 0 15-6.716 15-15s-6.716-15-15-15h-100c-8.284 0-15 6.716-15 15s6.716 15 15 15h5v41.791l-85.63-68.504c-5.479-4.383-13.262-4.383-18.74 0l-240 192c-6.47 5.175-7.519 14.614-2.343 21.083 5.175 6.469 14.615 7.521 21.083 2.343l15.63-12.504v153.791h-26c-8.284 0-15 6.716-15 15v122c0 8.284 6.716 15 15 15h482c8.284 0 15-6.716 15-15v-122c0-8.284-6.716-15-15-15zm-86-330v89.791l-30-24v-65.791zm-340 152.209 185-148 185 148v177.791h-64c-8.284 0-15 6.716-15 15v45h-31v-135c0-8.284-6.716-15-15-15h-120c-8.284 0-15 6.716-15 15v135h-31v-45c0-8.284-6.716-15-15-15h-64zm351 207.791v30h-30v-30zm-121-90v120h-30v-120zm-60 0v120h-30v-120zm-121 90v30h-30v-30zm-90 0h30v30h-30zm452 92h-452v-32h452zm0-62h-30v-30h30z"/><path d="m256 200c24.813 0 45-20.187 45-45s-20.187-45-45-45-45 20.187-45 45 20.187 45 45 45zm0-60c8.271 0 15 6.729 15 15s-6.729 15-15 15-15-6.729-15-15 6.729-15 15-15z"/></g></svg>